<svg width="19" height="15" viewBox="0 0 19 15" fill="none" xmlns="http://www.w3.org/2000/svg">
<path fill-rule="evenodd" clip-rule="evenodd" d="M11.043 14.7076C10.853 14.5076 10.753 14.2576 10.753 13.9976C10.753 13.7376 10.853 13.4876 11.043 13.2876L15.343 8.99762L1.75299 8.99762C1.20299 8.99762 0.752989 8.54762 0.752989 7.99762C0.752989 7.44762 1.20299 6.99762 1.75299 6.99762L15.343 6.99762L11.043 2.70762C10.653 2.31762 10.653 1.67762 11.043 1.28762C11.433 0.897618 12.073 0.897617 12.463 1.28762L18.463 7.28762C18.553 7.37762 18.623 7.48762 18.673 7.60762C18.693 7.65762 18.713 7.69762 18.713 7.74762C18.763 7.90762 18.763 8.08762 18.713 8.24762C18.713 8.29762 18.693 8.33762 18.673 8.38762C18.623 8.50762 18.553 8.61762 18.463 8.70762L12.463 14.7076C12.073 15.0976 11.433 15.0976 11.043 14.7076Z" fill="#313037"/>
</svg>
